<?xml version="1.0" standalone="no"?>
<!DOCTYPE svg PUBLIC "-//W3C//DTD SVG 20010904//EN"
 "http://www.w3.org/TR/2001/REC-SVG-20010904/DTD/svg10.dtd">
<svg version="1.0" xmlns="http://www.w3.org/2000/svg"
 width="422.000000pt" height="292.000000pt" viewBox="0 0 422.000000 292.000000"
 preserveAspectRatio="xMidYMid meet">

<g transform="translate(0.000000,292.000000) scale(0.100000,-0.100000)"
fill="#000000" stroke="none">
<path d="M14 1635 c12 -29 16 -76 16 -206 l0 -169 93 0 c132 1 194 33 232 122
17 43 20 124 4 165 -5 15 -22 41 -37 56 -48 51 -78 60 -205 65 l-118 5 15 -38z
m211 -49 c48 -20 68 -65 63 -138 -6 -84 -34 -111 -123 -116 l-65 -4 0 136 0
136 45 0 c25 0 61 -6 80 -14z"/>
<path d="M431 1638 l-20 -33 69 -3 70 -3 0 -169 0 -170 40 0 40 0 2 168 3 167
63 3 62 3 0 34 0 35 -154 0 -154 0 -21 -32z"/>
<path d="M1052 1605 c-39 -60 -62 -80 -62 -55 0 6 -20 10 -45 10 -25 0 -45 -4
-45 -8 0 -20 28 -32 75 -34 l50 -2 -47 -3 c-27 -2 -48 -7 -48 -12 0 -19 29
-31 75 -31 l50 0 68 100 68 100 -48 0 c-48 0 -48 -1 -91 -65z"/>
<path d="M1465 1653 c16 -40 15 -52 -21 -143 -20 -52 -49 -130 -65 -173 l-29
-78 42 3 c37 3 42 6 53 38 l12 35 90 3 90 3 12 -41 c11 -39 13 -40 56 -40 l43
0 -32 83 c-18 45 -54 137 -80 205 l-48 122 -65 0 c-58 0 -64 -2 -58 -17z m118
-167 c15 -38 25 -71 23 -73 -2 -2 -31 -3 -64 -1 l-59 3 29 78 c17 43 34 75 38
70 4 -4 19 -39 33 -77z"/>
<path d="M830 1652 c0 -19 27 -32 67 -32 41 0 43 1 33 20 -8 15 -21 20 -55 20
-25 0 -45 -4 -45 -8z"/>
<path d="M2506 1620 c-99 -30 -147 -169 -93 -271 34 -64 85 -91 164 -86 116 6
184 94 167 215 -16 109 -126 175 -238 142z m127 -84 c32 -30 43 -85 28 -137
-23 -77 -111 -98 -164 -39 -27 30 -29 38 -25 93 4 50 9 64 32 84 37 31 94 31
129 -1z"/>
<path d="M2836 1615 c-42 -22 -55 -44 -56 -91 0 -51 24 -76 106 -107 50 -19
59 -27 62 -50 5 -40 -36 -53 -106 -34 -53 15 -53 15 -63 -10 -12 -32 -6 -40
39 -53 116 -32 212 13 212 100 0 45 -34 80 -104 105 -73 28 -90 50 -60 79 20
20 60 20 98 1 16 -9 30 -14 31 -13 13 16 25 50 20 58 -8 13 -73 30 -115 30
-19 0 -48 -7 -64 -15z"/>
<path d="M3113 1613 l-52 -4 15 -36 c12 -28 15 -68 12 -174 l-3 -139 38 0 37
0 0 60 0 60 48 0 c88 0 152 68 137 146 -7 38 -56 84 -88 84 -12 0 -38 2 -57 4
-19 2 -58 1 -87 -1z m141 -79 c37 -37 1 -94 -59 -94 l-35 0 0 55 0 55 39 0
c23 0 46 -7 55 -16z"/>
<path d="M3396 1600 c17 -39 12 -64 -35 -189 -28 -74 -51 -138 -51 -143 0 -5
17 -8 37 -6 33 3 39 7 47 36 l9 32 72 0 72 0 9 -32 c9 -30 14 -33 52 -36 l43
-3 -14 33 c-8 18 -38 97 -68 175 l-54 141 -62 4 c-53 2 -62 1 -57 -12z m120
-186 c6 -23 4 -24 -40 -24 -25 0 -46 4 -46 9 0 8 21 73 36 111 6 15 37 -45 50
-96z"/>
<path d="M3735 1606 c-124 -55 -128 -272 -5 -333 24 -13 62 -23 85 -23 37 0
125 32 125 45 0 3 -7 17 -16 30 -15 23 -18 24 -44 10 -48 -25 -97 -19 -131 14
-25 25 -29 37 -29 84 0 93 58 140 145 116 31 -9 39 -8 51 8 7 10 14 23 14 30
1 30 -138 44 -195 19z"/>
<path d="M3966 1595 c5 -11 9 -91 11 -177 l4 -158 119 0 120 0 0 30 0 29 -82
3 -83 3 -3 37 -3 37 73 3 73 3 0 30 0 30 -72 3 -73 3 0 39 0 40 85 0 85 0 0
29 0 30 -131 3 c-126 3 -130 2 -123 -17z"/>
<path d="M870 1590 c8 -15 21 -20 55 -20 25 0 45 4 45 8 0 19 -27 32 -67 32
-41 0 -43 -1 -33 -20z"/>
<path d="M1776 1575 c10 -24 14 -75 14 -175 l0 -140 120 0 120 0 0 30 0 30
-85 0 -85 0 0 40 0 40 70 0 70 0 0 30 0 30 -70 0 -70 0 0 45 0 44 83 3 c81 3
82 3 85 31 l3 27 -135 0 -135 0 15 -35z"/>
<path d="M2076 1575 c10 -24 14 -75 14 -175 l0 -140 35 0 35 0 0 61 0 60 32
-3 c27 -3 37 -12 66 -60 32 -55 36 -58 73 -58 22 0 39 2 39 5 0 2 -16 29 -35
59 -39 61 -42 74 -20 83 37 14 56 93 35 147 -16 43 -57 56 -179 56 l-110 0 15
-35z m192 -37 c7 -7 12 -24 12 -39 0 -36 -33 -59 -82 -59 l-38 0 0 55 0 55 48
0 c26 0 53 -5 60 -12z"/>
<path d="M887 1363 l-67 -98 36 -3 c51 -5 58 0 104 68 31 45 45 59 53 51 6 -6
31 -11 54 -11 41 0 43 1 33 20 -8 16 -22 20 -63 22 l-52 2 49 3 c47 4 48 5 30
24 -12 13 -30 19 -64 19 l-46 0 -67 -97z"/>
<path d="M1040 1340 c8 -15 21 -20 55 -20 25 0 45 4 45 8 0 19 -27 32 -67 32
-41 0 -43 -1 -33 -20z"/>
<path d="M1070 1302 c0 -19 27 -32 67 -32 41 0 43 1 33 20 -8 15 -21 20 -55
20 -25 0 -45 -4 -45 -8z"/>
</g>
</svg>
